Coordinates
version=1
nRows=9
nColumns=63
inDegrees=yes

Units are S.I. units (second, meters, Newtons, ...)
If the header above contains a line with 'inDegrees', this indicates whether rotational values are in degrees (yes) or radians (no).

endheader
time	pelvis_tilt	pelvis_list	pelvis_rotation	pelvis_tx	pelvis_ty	pelvis_tz	hip_flexion_r	hip_adduction_r	hip_rotation_r	knee_angle_r	knee_angle_r_beta	ankle_angle_r	subtalar_angle_r	mtp_angle_r	hip_flexion_l	hip_adduction_l	hip_rotation_l	knee_angle_l	knee_angle_l_beta	ankle_angle_l	subtalar_angle_l	mtp_angle_l	L5_S1_Flex_Ext	L5_S1_Lat_Bending	L5_S1_axial_rotation	L4_L5_Flex_Ext	L4_L5_Lat_Bending	L4_L5_axial_rotation	L3_L4_Flex_Ext	L3_L4_Lat_Bending	L3_L4_axial_rotation	L2_L3_Flex_Ext	L2_L3_Lat_Bending	L2_L3_axial_rotation	L1_L2_Flex_Ext	L1_L2_Lat_Bending	L1_L2_axial_rotation	L1_T12_Flex_Ext	L1_T12_Lat_Bending	L1_T12_axial_rotation	Abs_r3	Abs_r2	Abs_r1	Abs_t1	Abs_t2	neck_flexion	neck_bending	neck_rotation	arm_flex_r	arm_add_r	arm_rot_r	elbow_flex_r	pro_sup_r	wrist_flex_r	wrist_dev_r	arm_flex_l	arm_add_l	arm_rot_l	elbow_flex_l	pro_sup_l	wrist_flex_l	wrist_dev_l
0.653846	-0.545423	-3.701301	82.116876	0.163630	0.722679	0.770721	5.395774	-2.413182	2.094522	7.654237	0.133592	30.710280	11.863779	0.000000	3.895253	0.524287	-20.866411	6.398022	0.111667	28.742091	13.354492	0.000000	0.085486	-0.818167	2.400616	0.158756	-1.088162	2.550655	0.140445	-1.989290	2.550655	0.097702	-1.989290	2.100539	0.079382	-1.668405	1.950501	0.048847	-1.267340	1.800462	0.610619	-9.255264	13.351508	0.000000	0.000000	25.820440	7.203859	-20.463195	23.366422	2.690829	13.898460	118.103875	81.359242	16.161201	27.970100	18.566523	-10.414446	85.068856	18.073414	39.951121	-21.944237	-10.596417
0.673077	-0.600166	-3.569101	81.204620	0.165937	0.723891	0.768556	5.059155	-2.307580	3.431386	7.247877	0.126499	30.199503	11.498468	0.000000	3.242820	0.647812	-20.507513	5.715292	0.099751	27.974628	11.939218	0.000000	0.087971	-0.850537	2.485210	0.163371	-1.131214	2.640536	0.144528	-2.067996	2.640536	0.100542	-2.067996	2.174559	0.081690	-1.734415	2.019233	0.050267	-1.317482	1.863908	0.628370	-9.621446	13.821993	0.000000	0.000000	25.951969	7.527569	-21.266254	25.231365	3.574013	13.515413	124.576725	81.560944	17.896882	27.311300	18.658672	-10.752797	95.167594	15.076591	31.857441	-21.485897	-10.949793
0.692308	-0.627482	-3.425462	80.389455	0.168171	0.724961	0.766578	4.722102	-2.185110	4.702955	6.855479	0.119651	29.782934	11.117385	0.000000	2.640398	0.733086	-20.213973	5.100229	0.089016	27.360137	10.766125	0.000000	0.089859	-0.879487	2.538996	0.166877	-1.169718	2.697684	0.147629	-2.138385	2.697684	0.102700	-2.138385	2.221622	0.083443	-1.793450	2.062935	0.051345	-1.362325	1.904247	0.641854	-9.948934	14.121136	0.000000	0.000000	26.058726	7.943545	-21.853343	27.108572	4.482059	13.259945	130.060928	81.392708	19.317562	26.633388	18.587610	-11.185471	104.787972	12.475574	24.310415	-20.661193	-11.274677
0.711538	-0.632057	-3.274313	79.684433	0.170312	0.725857	0.764784	4.382503	-2.052958	5.898605	6.472017	0.112958	29.463764	10.717857	0.000000	2.089033	0.790620	-19.835910	4.545346	0.079331	26.871984	9.646201	0.000000	0.091321	-0.906278	2.555755	0.169592	-1.205350	2.715490	0.150031	-2.203525	2.715490	0.104370	-2.203525	2.236286	0.084800	-1.848083	2.076551	0.052181	-1.403825	1.916816	0.652294	-10.252002	14.214342	0.000000	0.000000	26.155854	8.475319	-22.201796	28.953960	5.401121	13.104278	134.417347	81.181734	20.363418	26.006630	18.252588	-11.671925	113.447382	10.415434	17.490998	-19.435816	-11.477941
0.730769	-0.633293	-3.120548	79.108292	0.172371	0.726576	0.763168	4.032263	-1.929893	7.156968	6.072205	0.105980	29.192764	10.076813	0.000000	1.603078	0.826360	-19.524484	4.077777	0.071171	26.534326	8.790878	0.000000	0.092596	-0.934473	2.533005	0.171961	-1.242849	2.691318	0.152126	-2.272078	2.691318	0.105828	-2.272078	2.216379	0.085985	-1.905577	2.058066	0.052910	-1.447499	1.899754	0.661406	-10.570945	14.087813	0.000000	0.000000	26.254646	9.170851	-22.294578	30.699335	6.335933	12.962015	137.597257	81.616636	21.235755	25.497481	17.652362	-12.176951	120.963604	8.971417	11.424748	-17.858414	-11.461360
0.750000	-0.645178	-2.974717	78.658811	0.174326	0.727137	0.761730	3.693766	-1.833097	8.241930	5.676930	0.099081	29.023430	9.529883	0.000000	1.187207	0.863083	-19.090860	3.675998	0.064158	26.302037	7.949275	0.000000	0.094834	-0.966357	2.474255	0.176117	-1.285255	2.628896	0.155803	-2.349601	2.628896	0.108386	-2.349601	2.164973	0.088063	-1.970596	2.010332	0.054188	-1.496888	1.855691	0.677391	-10.931628	13.761066	0.000000	0.000000	26.344690	9.995041	-22.222705	32.246709	7.234366	12.834683	139.727148	82.876648	22.127371	25.077248	16.813474	-12.720618	126.663839	8.179657	6.600496	-16.085075	-11.185006
0.769231	-0.672580	-2.831512	78.330123	0.176155	0.727589	0.760468	3.356653	-1.768358	9.238127	5.271778	0.092010	28.915970	8.964996	0.000000	0.841240	0.897741	-18.678092	3.358401	0.058615	26.203596	7.298706	0.000000	0.097312	-1.001838	2.381697	0.180719	-1.332444	2.530553	0.159874	-2.435868	2.530553	0.111218	-2.435868	2.083985	0.090364	-2.042948	1.935129	0.055604	-1.551847	1.786273	0.695092	-11.332989	13.246286	0.000000	0.000000	26.405414	10.939644	-21.986791	33.493674	8.015318	12.787708	141.033161	84.562791	23.126026	24.735253	15.780094	-13.301767	130.523513	7.985353	3.084826	-14.216796	-10.640138
0.788462	-0.716144	-2.686981	78.102154	0.177830	0.727962	0.759371	3.014117	-1.736960	10.274235	4.845164	0.084564	28.825630	8.235309	0.000000	0.564211	0.926194	-18.419392	3.138435	0.054776	26.264884	6.972168	0.000000	0.099469	-1.039561	2.264042	0.184724	-1.382617	2.405545	0.163418	-2.527589	2.405545	0.113683	-2.527589	1.981037	0.092367	-2.119873	1.839534	0.056837	-1.610281	1.698032	0.710498	-11.759726	12.591925	0.000000	0.000000	26.433380	11.946493	-21.624098	34.355189	8.649387	12.784330	141.799793	86.518511	24.432043	24.523617	14.589198	-13.917395	132.183103	8.272015	1.247782	-12.368444	-9.870319
0.807692	-0.784100	-2.545964	77.944605	0.179350	0.728253	0.758454	2.693001	-1.748468	11.057373	4.429932	0.077317	28.839749	7.790007	0.000000	0.354539	0.963701	-18.264119	2.996957	0.052307	26.460907	6.847986	0.000000	0.101976	-1.079164	2.135666	0.189380	-1.435288	2.269145	0.167536	-2.623879	2.269145	0.116548	-2.623879	1.868708	0.094695	-2.200631	1.735229	0.058269	-1.671625	1.601749	0.728404	-12.207715	11.877933	0.000000	0.000000	26.433316	12.955605	-21.193221	34.817964	9.146350	12.809860	142.266380	88.602910	26.077000	24.406912	13.312701	-14.581633	131.486477	8.928710	1.282695	-10.664443	-8.954167
